<svg width="133" height="72" viewBox="0 0 133 72" fill="none" xmlns="http://www.w3.org/2000/svg">
<rect width="133" height="72" fill="#F5F5F5"/>
<mask id="mask0_0_1" style="mask-type:luminance" maskUnits="userSpaceOnUse" x="0" y="-2" width="102" height="74">
<path d="M102 -2H0V71.972H102V-2Z" fill="white"/>
</mask>
<g mask="url(#mask0_0_1)">
<path d="M100.091 4L68.1883 60.4159L66.485 63.4262L64.4832 66.9752L64.2864 67L54.5951 51.5733L56.3264 48.4941L69.606 24.9831L100.091 4Z" fill="url(#paint0_linear_0_1)"/>
<path d="M89.6742 35.5978L102.778 70.7489L84.5732 71.1725L78.1498 53.9415L89.6742 35.5978Z" fill="url(#paint1_linear_0_1)"/>
<path d="M78.7033 54.009L89.5645 36.7208L102.069 70.2634L84.9115 70.6627L78.7033 54.009Z" stroke="black" stroke-opacity="0.3" stroke-linejoin="bevel"/>
<g style="mix-blend-mode:multiply" opacity="0.16">
<path d="M61.3967 58.376L57.5587 65.511L57.3549 65.538L47.3157 48.756L49.1083 45.406C52.2293 48.676 57.4841 54.221 61.3967 58.376Z" fill="black"/>
</g>
<path d="M47.4807 37.4089L64.9111 66.5339L46.559 69.17L38.0148 54.8929L47.4807 37.4089Z" fill="url(#paint2_linear_0_1)"/>
<g style="mix-blend-mode:screen" opacity="0.3">
<path d="M97.8058 4L61.4866 65.376L59.5476 68.651C58.7276 69.951 57.8856 71.251 57.0476 72.538C58.6296 69.618 60.2476 66.714 61.8696 63.811C63.4736 60.903 65.1046 58.0093 66.7626 55.13C70.0726 49.369 73.3276 43.565 76.6966 37.83C80.0296 32.082 83.4266 26.372 86.8018 20.649C89.5798 16.017 92.3608 11.3837 95.1458 6.74899C93.2848 7.95899 91.4268 9.149 89.5408 10.328L80.7676 15.883C77.8476 17.7497 74.9143 19.586 71.9676 21.392C69.0236 23.221 66.0797 25.05 63.1047 26.832L97.8058 4Z" fill="white"/>
</g>
<g style="mix-blend-mode:screen" opacity="0.3">
<path d="M37.6706 39L53.6934 65.7741C53.828 66.0391 53.9563 66.295 54.0828 66.566C53.3048 65.491 52.5614 64.3911 51.8035 63.2881C51.0601 62.1881 50.293 61.0881 49.5751 59.9731C48.8344 58.8581 48.1083 57.746 47.384 56.618C46.6743 55.494 45.9481 54.382 45.2411 53.242C43.8253 50.9754 42.4301 48.6967 41.0555 46.406C39.9054 44.526 38.7935 42.6061 37.6779 40.7061C36.2857 43.1727 34.869 45.6281 33.4277 48.0721C32.5796 49.4911 31.7452 50.913 30.8571 52.306C29.9836 53.706 29.121 55.118 28.2075 56.489L37.6706 39Z" fill="white"/>
</g>
<path d="M0.00341034 71.9759L33.0507 10.6039L34.8151 7.32892L36.8888 3.46793L37.0926 3.44092L47.1335 20.2189L45.3401 23.5679L31.5776 49.1429L0.00341034 71.9759Z" fill="url(#paint3_linear_0_1)"/>
<g style="mix-blend-mode:multiply" opacity="0.16">
<path d="M33.0476 10.6L36.8856 3.46402L37.0894 3.43701L47.1304 20.215L45.3369 23.565C42.2177 20.29 36.9602 14.75 33.0476 10.6Z" fill="black"/>
</g>
<path d="M54.5193 32.562L37.0889 3.43704L55.4401 0.801025L63.9844 15.078L54.5193 32.562Z" fill="#00F872"/>
<g style="mix-blend-mode:multiply" opacity="0.16">
<path d="M0.00341034 71.9761L33.0507 10.6051L34.8151 7.33014C35.5612 6.03014 36.3264 4.73014 37.0899 3.44214C35.6495 6.36214 34.1781 9.2661 32.7022 12.1701C31.2427 15.0775 29.7586 17.9708 28.25 20.8501C25.2382 26.6111 22.2764 32.4151 19.21 38.1501C16.1781 43.8981 13.0871 49.6081 10.0152 55.3311C7.48748 59.9631 4.95701 64.5965 2.4238 69.2311C4.11715 68.0211 5.80776 66.8311 7.52387 65.6531L15.5066 60.0971C18.1629 58.2305 20.8321 56.3941 23.5139 54.5881C26.1927 52.7591 28.8715 50.9301 31.5785 49.1481L0.00341034 71.9761Z" fill="black"/>
</g>
<g style="mix-blend-mode:multiply" opacity="0.16">
<path d="M0.00341034 71.9761L33.0507 10.6051L34.8151 7.33014C35.5612 6.03014 36.3264 4.73014 37.0899 3.44214C35.6495 6.36214 34.1781 9.2661 32.7022 12.1701C31.2427 15.0775 29.7586 17.9708 28.25 20.8501C25.2382 26.6111 22.2764 32.4151 19.21 38.1501C16.1781 43.8981 13.0871 49.6081 10.0152 55.3311C7.48748 59.9631 4.95701 64.5965 2.4238 69.2311C4.11715 68.0211 5.80776 66.8311 7.52387 65.6531L15.5066 60.0971C18.1629 58.2305 20.8321 56.3941 23.5139 54.5881C26.1927 52.7591 28.8715 50.9301 31.5785 49.1481L0.00341034 71.9761Z" fill="black"/>
</g>
<g style="mix-blend-mode:multiply" opacity="0.3">
<path d="M54.5196 32.5621L38.4932 5.78808C38.3594 5.52308 38.2302 5.26708 38.1046 4.99608C38.8826 6.07108 39.626 7.1711 40.3794 8.27409C41.1228 9.37409 41.889 10.4741 42.6078 11.5891C43.3485 12.7041 44.0745 13.8161 44.7988 14.9431C45.5076 16.0681 46.2348 17.1801 46.9409 18.3201C48.3579 20.5868 49.7531 22.8654 51.1265 25.1561C52.2766 27.0361 53.3885 28.9561 54.5041 30.8561C55.8963 28.3894 57.3127 25.9341 58.7533 23.4901C59.6023 22.0711 60.4368 20.6491 61.3239 19.2561C62.2111 17.8631 63.061 16.4441 63.9736 15.0731L54.5196 32.5621Z" fill="black"/>
</g>
<g style="mix-blend-mode:screen" opacity="0.3">
<g filter="url(#filter0_dd_0_1)">
<path d="M29.8633 47.854L7.70409 63.369L32.8724 16.1541C32.8724 16.1541 32.8606 16.747 29.8633 47.854Z" fill="white"/>
</g>
</g>
<g style="mix-blend-mode:screen" opacity="0.2">
<path d="M62.2724 15.033L54.4162 27.419L40.7783 5.90698L62.2724 15.033Z" fill="white"/>
</g>
</g>
<path d="M106.878 46.414C106.947 46.518 107.012 46.6783 107.073 46.895C107.134 47.1117 107.173 47.3197 107.19 47.519L105.76 48.208C105.5 48.1473 105.231 48.0563 104.954 47.935C104.685 47.805 104.438 47.662 104.213 47.506C103.988 47.35 103.81 47.2027 103.68 47.064L102.419 43.918L101.405 44.802L101.418 48L100.664 48.182C100.439 48.0693 100.209 47.9177 99.975 47.727C99.741 47.5277 99.5503 47.2893 99.403 47.012L100.04 43.632L99.884 38.9L100.261 38.64C100.356 38.6573 100.486 38.705 100.651 38.783C100.824 38.861 100.993 38.9477 101.158 39.043C101.323 39.1383 101.444 39.2293 101.522 39.316L101.418 43.411L105.305 38.9H105.838C106.141 39.342 106.336 39.836 106.423 40.382L103.589 42.878C103.858 43.5453 104.165 44.23 104.512 44.932C104.867 45.6253 105.236 46.2277 105.617 46.739L106.878 46.414ZM112.6 45.959C112.661 46.037 112.726 46.1887 112.795 46.414C112.873 46.6393 112.908 46.8387 112.899 47.012C112.526 47.168 112.136 47.324 111.729 47.48C111.322 47.6273 110.94 47.766 110.585 47.896C110.238 48.026 109.952 48.13 109.727 48.208C109.458 48.1387 109.177 48.0303 108.882 47.883C108.587 47.7357 108.319 47.5623 108.076 47.363C107.833 47.155 107.66 46.947 107.556 46.739L107.738 42.761C107.859 42.5443 108.028 42.3277 108.245 42.111C108.47 41.8857 108.691 41.682 108.908 41.5C109.411 41.3873 109.9 41.318 110.377 41.292C110.862 41.266 111.326 41.2877 111.768 41.357C111.846 41.4003 111.95 41.4957 112.08 41.643C112.219 41.7817 112.353 41.9247 112.483 42.072C112.613 42.2193 112.7 42.3277 112.743 42.397L112.691 44.334C112.466 44.4987 112.162 44.672 111.781 44.854C111.4 45.036 110.979 45.2137 110.52 45.387C110.061 45.5517 109.601 45.699 109.142 45.829C109.151 45.9937 109.164 46.154 109.181 46.31C109.198 46.466 109.22 46.6177 109.246 46.765L112.6 45.959ZM111.3 42.696C110.988 42.6527 110.685 42.6397 110.39 42.657C110.095 42.6743 109.788 42.7263 109.467 42.813C109.38 43.0817 109.311 43.372 109.259 43.684C109.207 43.996 109.168 44.3123 109.142 44.633C109.515 44.5117 109.905 44.3557 110.312 44.165C110.728 43.9657 111.105 43.7577 111.443 43.541L111.3 42.696ZM119.552 41.474C119.648 41.5693 119.743 41.695 119.838 41.851C119.934 41.9983 120.016 42.1413 120.085 42.28C120.163 42.41 120.207 42.5097 120.215 42.579C120.042 43.6883 119.756 44.646 119.357 45.452C118.959 46.258 118.508 46.895 118.005 47.363C117.511 47.8223 117.026 48.104 116.549 48.208C116.411 48.13 116.237 48.0043 116.029 47.831C115.83 47.6577 115.644 47.4627 115.47 47.246C115.297 47.0207 115.171 46.8083 115.093 46.609L114.651 42.969L113.702 43.216C113.624 43.112 113.546 42.956 113.468 42.748C113.39 42.5313 113.343 42.3233 113.325 42.124L115.236 41.292C115.436 41.37 115.657 41.526 115.899 41.76C116.151 41.9853 116.346 42.2193 116.484 42.462C116.346 42.9387 116.272 43.4283 116.263 43.931C116.255 44.4337 116.289 44.893 116.367 45.309C116.445 45.725 116.532 46.0543 116.627 46.297C116.731 46.5397 116.822 46.648 116.9 46.622C117.152 46.5267 117.399 46.3057 117.641 45.959C117.893 45.6123 118.118 45.2007 118.317 44.724L117.823 41.747C118.014 41.6603 118.27 41.5867 118.59 41.526C118.911 41.4567 119.232 41.4393 119.552 41.474ZM122.691 40.551C122.24 40.3083 121.833 39.9877 121.469 39.589C121.477 39.4503 121.534 39.2943 121.638 39.121C121.75 38.939 121.88 38.7743 122.028 38.627C122.184 38.471 122.331 38.3757 122.47 38.341C122.608 38.341 122.764 38.3973 122.938 38.51C123.111 38.614 123.271 38.744 123.419 38.9C123.566 39.0473 123.653 39.1903 123.679 39.329C123.67 39.4763 123.609 39.641 123.497 39.823C123.384 39.9963 123.254 40.1523 123.107 40.291C122.959 40.421 122.821 40.5077 122.691 40.551ZM124.121 46.258C124.181 46.362 124.255 46.5223 124.342 46.739C124.428 46.947 124.48 47.1507 124.498 47.35L122.743 48.208C122.084 47.9047 121.633 47.5147 121.391 47.038L121.664 42.956L120.715 43.242C120.654 43.138 120.58 42.982 120.494 42.774C120.407 42.5573 120.355 42.3493 120.338 42.15L122.093 41.292C122.179 41.3007 122.305 41.3483 122.47 41.435C122.634 41.5217 122.795 41.617 122.951 41.721C123.115 41.825 123.241 41.9117 123.328 41.981L122.964 44.841V46.609L124.121 46.258ZM131.725 46.323C131.803 46.427 131.881 46.5743 131.959 46.765C132.037 46.9557 132.084 47.1507 132.102 47.35L130.347 48.208C130.121 48.0953 129.883 47.948 129.632 47.766C129.38 47.584 129.181 47.3847 129.034 47.168C129.19 46.622 129.294 46.0717 129.346 45.517C129.398 44.9623 129.411 44.4467 129.385 43.97C129.367 43.4847 129.32 43.0903 129.242 42.787C129.025 42.8823 128.791 43.0513 128.54 43.294C128.297 43.528 128.054 43.8097 127.812 44.139C127.569 44.4683 127.344 44.8237 127.136 45.205L127.058 48C126.867 48.052 126.646 48.078 126.395 48.078C126.143 48.078 125.918 48.052 125.719 48C125.45 47.714 125.229 47.389 125.056 47.025C125.134 46.635 125.238 46.258 125.368 45.894C125.506 45.53 125.658 45.1877 125.823 44.867L125.836 44.672L125.68 42.878L124.549 43.164C124.488 43.06 124.414 42.917 124.328 42.735C124.241 42.5443 124.189 42.3493 124.172 42.15L125.927 41.292C126.013 41.3007 126.135 41.3483 126.291 41.435C126.455 41.5217 126.616 41.617 126.772 41.721C126.936 41.8163 127.058 41.8987 127.136 41.968L127.084 43.06C127.569 42.5053 128.054 42.072 128.54 41.76C129.034 41.448 129.441 41.292 129.762 41.292C129.892 41.3613 130.035 41.4827 130.191 41.656C130.347 41.8293 130.49 42.0243 130.62 42.241C130.75 42.449 130.841 42.657 130.893 42.865L130.672 46.596L131.725 46.323Z" fill="black"/>
<defs>
<filter id="filter0_dd_0_1" x="3.70409" y="16.1541" width="33.1683" height="55.2149" filterUnits="userSpaceOnUse" color-interpolation-filters="sRGB">
<feFlood flood-opacity="0" result="BackgroundImageFix"/>
<feColorMatrix in="SourceAlpha" type="matrix" values="0 0 0 0 0 0 0 0 0 0 0 0 0 0 0 0 0 0 127 0" result="hardAlpha"/>
<feOffset dy="4"/>
<feGaussianBlur stdDeviation="2"/>
<feComposite in2="hardAlpha" operator="out"/>
<feColorMatrix type="matrix" values="0 0 0 0 0 0 0 0 0 0 0 0 0 0 0 0 0 0 0.25 0"/>
<feBlend mode="normal" in2="BackgroundImageFix" result="effect1_dropShadow_0_1"/>
<feColorMatrix in="SourceAlpha" type="matrix" values="0 0 0 0 0 0 0 0 0 0 0 0 0 0 0 0 0 0 127 0" result="hardAlpha"/>
<feOffset dy="4"/>
<feGaussianBlur stdDeviation="2"/>
<feComposite in2="hardAlpha" operator="out"/>
<feColorMatrix type="matrix" values="0 0 0 0 0 0 0 0 0 0 0 0 0 0 0 0 0 0 0.25 0"/>
<feBlend mode="normal" in2="effect1_dropShadow_0_1" result="effect2_dropShadow_0_1"/>
<feBlend mode="normal" in="SourceGraphic" in2="effect2_dropShadow_0_1" result="shape"/>
</filter>
<linearGradient id="paint0_linear_0_1" x1="153.048" y1="334.498" x2="216.059" y2="334.498" gradientUnits="userSpaceOnUse">
<stop stop-color="#233B55"/>
<stop offset="1" stop-color="#131D32"/>
</linearGradient>
<linearGradient id="paint1_linear_0_1" x1="147.845" y1="390.537" x2="142.83" y2="425.797" gradientUnits="userSpaceOnUse">
<stop stop-color="#33F98E"/>
<stop offset="1" stop-color="#131D32"/>
</linearGradient>
<linearGradient id="paint2_linear_0_1" x1="148.531" y1="340.727" x2="148.531" y2="372.202" gradientUnits="userSpaceOnUse">
<stop stop-color="#233B55"/>
<stop offset="1" stop-color="#131D32"/>
</linearGradient>
<linearGradient id="paint3_linear_0_1" x1="-1199.55" y1="300.129" x2="-1134.28" y2="300.129" gradientUnits="userSpaceOnUse">
<stop stop-color="#233B55"/>
<stop offset="0.033" stop-color="#938382"/>
<stop offset="0.158" stop-color="#736560"/>
<stop offset="0.288" stop-color="#6A594D"/>
<stop offset="0.419" stop-color="#AD967B"/>
<stop offset="0.554" stop-color="#6A542C"/>
<stop offset="0.6929" stop-color="#8B6D1F"/>
<stop offset="0.693" stop-color="#41371D"/>
<stop offset="0.838" stop-color="#5E4B0E"/>
<stop offset="1" stop-color="#33F98E"/>
</linearGradient>
</defs>
</svg>
