<svg width="330" height="148" viewBox="0 0 330 148" fill="none" xmlns="http://www.w3.org/2000/svg">
<rect width="330" height="148" fill="#F5F5F5" fill-opacity="0.05"/>
<g id="Vector" filter="url(#filter0_i_0_1)">
<path d="M288.42 63.5911C293.515 64.3326 298.702 60.3432 300.651 58.6429C303.745 59.6939 306.921 60.4643 310.172 60.9224C312.653 61.2718 315.178 61.4373 317.741 61.4162C320.235 64.1372 323.041 66.3515 326.224 67.527C329.832 66.2807 329.231 63.4523 328.879 60.7164C324.534 60.4309 320.364 58.3928 316.281 55.6314C315.414 54.8367 314.565 54.0219 313.735 53.1877C313.133 48.38 313.184 43.7166 313.666 39.1346C316.932 38.9333 323.405 37.9399 325.94 33.301L318.603 33.2591L326.895 30.4927C327.633 26.9343 327.336 23.8798 326.715 21.0563L321.035 25.56L325.931 18.0085C324.875 14.2972 323.697 10.834 324.255 6.90742C321.966 8.62684 319.818 9.99698 317.855 11.2912L317.906 19.0183L315.995 12.544C313.441 14.3184 311.283 16.12 309.661 18.6892L313.186 26.5592L308.116 21.8102C308.071 21.9298 308.028 22.0528 307.985 22.1753C305.514 29.1187 309.941 36.5438 311.315 38.6029C310.896 42.4362 310.763 46.3439 311.048 50.3545C306.632 45.4728 302.511 39.769 298.924 33.4425C300.509 29.9249 301.535 26.9843 302.097 24.4912L297.547 27.5393L302.634 20.2289C302.643 17.0933 301.623 14.8803 299.945 13.0736L295.848 18.5059L298.086 11.3997C296.147 9.9078 293.735 8.62019 291.156 7.11768C290.857 9.26806 290.557 10.8708 290.194 13.3053L289.035 5.83837C286.8 4.44531 284.501 2.81976 282.322 0.700553C281.462 4.3084 280.909 7.97288 280.753 11.492L287.164 15.1523L280.706 13.6214C280.715 17.0017 281.123 20.2014 282.016 23.0264L289.403 25.9117L283.269 26.1114C285.397 30.2825 288.957 33.2131 294.343 34.0139C295.06 34.1204 295.81 34.1863 296.593 34.2153C301.626 43.192 307.708 50.9792 314.257 57.06C314.716 57.708 315.189 58.3452 315.676 58.971C310.658 58.804 305.809 57.873 301.144 56.2609C300.574 53.8131 299.121 49.1809 295.87 46.3856L295.699 53.3752L293.176 44.7384C292.812 44.5936 292.436 44.4671 292.041 44.3682C284.59 42.498 278.662 48.3827 271.15 46.3101C273.319 47.7949 274.68 49.6393 275.894 51.6119L284.505 52.8263L277.595 54.4815C279.059 56.9379 280.751 59.4206 283.811 61.5341L290.545 58.674L286.532 63.0795C287.139 63.3246 287.773 63.4963 288.42 63.5911L288.42 63.5911Z" fill="#1EBB41"/>
</g>
<rect id="To fill blue" y="35" width="185" height="97" fill="#3AC9D9"/>
<path id="MOUNTAINS" d="M88 7L47 51H179L132 7L111 31L88 7Z" fill="#D4E8F3"/>
<path id="MOUNTAINS2" d="M258 148L299 104H167L214 148L235 124L258 148Z" fill="#D4E8F3"/>
<path id="MASERETI KEVIN" d="M29.74 71.6C30.7 71.6 31.18 75.5 31.18 83.3C31.18 91.1 30.7 95 29.74 95C28.78 95 28.3 92.42 28.3 87.26C28.3 82.148 27.64 82.148 26.32 87.26C24.976 92.42 23.836 95 22.9 95C21.964 95 20.824 92.444 19.48 87.332C18.16 82.268 17.5 82.268 17.5 87.332C17.5 92.444 17.02 95 16.06 95C15.1 95 14.62 91.1 14.62 83.3C14.62 75.5 15.1 71.6 16.06 71.6C17.02 71.6 18.4 74.852 20.2 81.356C22 87.86 23.8 87.86 25.6 81.356C27.4 74.852 28.78 71.6 29.74 71.6ZM49.965 95C49.557 95 49.173 94.796 48.813 94.388C48.477 93.98 48.165 93.476 47.877 92.876C47.613 92.252 47.385 91.64 47.193 91.04C47.001 90.416 46.857 89.9 46.761 89.492C46.665 89.084 46.617 88.88 46.617 88.88H42.657C40.017 88.88 38.397 89.9 37.797 91.94C37.197 93.98 36.393 95 35.385 95C35.145 95 35.025 94.664 35.025 93.992C35.049 93.32 35.169 92.42 35.385 91.292C35.601 90.164 35.889 88.904 36.249 87.512C36.633 86.096 37.053 84.632 37.509 83.12C37.965 81.608 38.433 80.156 38.913 78.764C39.417 77.348 39.909 76.076 40.389 74.948C40.869 73.82 41.301 72.92 41.685 72.248C42.093 71.576 42.417 71.24 42.657 71.24C42.921 71.24 43.245 71.576 43.629 72.248C44.013 72.92 44.445 73.82 44.925 74.948C45.405 76.076 45.897 77.348 46.401 78.764C46.905 80.156 47.385 81.608 47.841 83.12C48.297 84.632 48.705 86.096 49.065 87.512C49.449 88.904 49.749 90.164 49.965 91.292C50.205 92.42 50.325 93.32 50.325 93.992C50.349 94.664 50.229 95 49.965 95ZM42.657 86.144C44.769 86.144 45.297 84.344 44.241 80.744C43.185 77.144 42.129 77.144 41.073 80.744C40.041 84.344 40.569 86.144 42.657 86.144ZM55.7899 87.404C56.6539 87.404 57.1339 88.172 57.2299 89.708L60.7579 92.66H65.1859L67.6339 90.608V87.728L66.3019 86.252L65.1499 85.424C64.5499 85.184 63.8299 84.932 62.9899 84.668C62.1499 84.38 61.2739 84.068 60.3619 83.732L57.4819 82.364L55.2499 79.7V75.884L57.0139 72.968L60.3619 71.24H66.2299L70.1179 75.308C70.0699 77.588 69.6259 78.728 68.7859 78.728C67.8979 78.728 67.4419 77.924 67.4179 76.316L64.6819 73.976H60.6139L58.1299 75.776V78.656L59.3899 80.168L61.1899 81.032C61.7179 81.224 62.1859 81.392 62.5939 81.536C63.0259 81.68 63.3259 81.776 63.4939 81.824C63.8539 81.992 64.1899 82.124 64.5019 82.22C64.6699 82.292 64.9699 82.424 65.4019 82.616C65.8339 82.784 66.4099 83 67.1299 83.264L68.8579 84.596L70.5139 86.972V91.796L66.6979 95.36H60.2899L56.2219 92.84L54.4219 89.42C54.4219 88.796 54.4099 88.352 54.3859 88.088C54.3859 87.8 54.4699 87.62 54.6379 87.548C54.8299 87.452 55.2139 87.404 55.7899 87.404ZM83.7549 92.3C88.3149 92.3 90.5949 92.744 90.5949 93.632C90.5949 94.544 87.8349 95 82.3149 95C76.7709 95 73.9989 91.1 73.9989 83.3C73.9989 75.5 76.7589 71.6 82.2789 71.6C87.7989 71.6 90.5589 72.044 90.5589 72.932C90.5589 73.844 88.2789 74.3 83.7189 74.3C79.1589 74.3 76.8789 75.584 76.8789 78.152C76.8789 80.72 78.7509 82.004 82.4949 82.004C86.2149 82.004 88.0749 82.448 88.0749 83.336C88.0749 84.248 86.2149 84.704 82.4949 84.704C78.7509 84.704 76.8789 85.964 76.8789 88.484C76.8789 91.028 79.1709 92.3 83.7549 92.3ZM105.672 84.308L108.264 85.1L109.704 87.188V92.084C109.704 94.028 109.236 95 108.3 95C107.34 95 106.86 94.028 106.86 92.084C106.836 91.1 106.824 90.068 106.824 88.988C106.824 87.884 106.824 86.708 106.824 85.46H99.1559C97.4999 85.46 96.6719 87.044 96.6719 90.212C96.6719 93.404 96.1919 95 95.2319 95C94.2719 95 93.7919 91.1 93.7919 83.3C93.7919 75.5 95.2199 71.6 98.0759 71.6H106.032L110.064 74.984V81.104L106.572 83.984C104.58 84.176 104.28 84.284 105.672 84.308ZM99.5159 82.688H104.484L107.184 80.204V76.388L104.52 74.372H99.5159C97.6199 74.372 96.6719 75.752 96.6719 78.512C96.6719 81.296 97.6199 82.688 99.5159 82.688ZM123.341 92.3C127.901 92.3 130.181 92.744 130.181 93.632C130.181 94.544 127.421 95 121.901 95C116.357 95 113.585 91.1 113.585 83.3C113.585 75.5 116.345 71.6 121.865 71.6C127.385 71.6 130.145 72.044 130.145 72.932C130.145 73.844 127.865 74.3 123.305 74.3C118.745 74.3 116.465 75.584 116.465 78.152C116.465 80.72 118.337 82.004 122.081 82.004C125.801 82.004 127.661 82.448 127.661 83.336C127.661 84.248 125.801 84.704 122.081 84.704C118.337 84.704 116.465 85.964 116.465 88.484C116.465 91.028 118.757 92.3 123.341 92.3ZM151.018 72.932C151.018 73.844 149.698 74.3 147.058 74.3C144.418 74.3 143.098 77.744 143.098 84.632C143.098 91.544 142.618 95 141.658 95C140.698 95 140.218 91.544 140.218 84.632C140.218 77.744 138.898 74.3 136.258 74.3C133.618 74.3 132.298 73.844 132.298 72.932C132.298 72.044 135.418 71.6 141.658 71.6C147.898 71.6 151.018 72.044 151.018 72.932ZM165.231 74.3C163.671 74.3 162.891 77.3 162.891 83.3C162.891 89.3 163.671 92.3 165.231 92.3C166.791 92.3 167.571 92.744 167.571 93.632C167.571 94.544 166.791 95 165.231 95H157.671C156.111 95 155.331 94.544 155.331 93.632C155.331 92.744 156.111 92.3 157.671 92.3C159.231 92.3 160.011 89.3 160.011 83.3C160.011 77.3 159.231 74.3 157.671 74.3C156.111 74.3 155.331 73.844 155.331 72.932C155.331 72.044 157.371 71.6 161.451 71.6C165.531 71.6 167.571 72.044 167.571 72.932C167.571 73.844 166.791 74.3 165.231 74.3ZM208.309 95C207.037 95 204.613 92.96 201.037 88.88C197.437 84.8 195.637 84.8 195.637 88.88C195.637 92.96 195.157 95 194.197 95C193.237 95 192.757 91.1 192.757 83.3C192.757 75.5 193.237 71.6 194.197 71.6C195.157 71.6 195.637 73.46 195.637 77.18C195.637 80.9 197.173 80.9 200.245 77.18C203.317 73.46 205.489 71.6 206.761 71.6C208.081 71.6 207.133 73.436 203.917 77.108C202.909 78.26 202.165 79.292 201.685 80.204C201.229 81.092 201.037 81.956 201.109 82.796C201.181 83.636 201.505 84.536 202.081 85.496C202.681 86.456 203.545 87.56 204.673 88.808C208.369 92.936 209.581 95 208.309 95ZM222.306 92.3C226.866 92.3 229.146 92.744 229.146 93.632C229.146 94.544 226.386 95 220.866 95C215.322 95 212.55 91.1 212.55 83.3C212.55 75.5 215.31 71.6 220.83 71.6C226.35 71.6 229.11 72.044 229.11 72.932C229.11 73.844 226.83 74.3 222.27 74.3C217.71 74.3 215.43 75.584 215.43 78.152C215.43 80.72 217.302 82.004 221.046 82.004C224.766 82.004 226.626 82.448 226.626 83.336C226.626 84.248 224.766 84.704 221.046 84.704C217.302 84.704 215.43 85.964 215.43 88.484C215.43 91.028 217.722 92.3 222.306 92.3ZM248.291 71.6C248.555 71.6 248.663 71.936 248.615 72.608C248.591 73.256 248.459 74.144 248.219 75.272C248.003 76.376 247.691 77.624 247.283 79.016C246.899 80.384 246.467 81.812 245.987 83.3C245.507 84.788 245.003 86.228 244.475 87.62C243.971 88.988 243.467 90.236 242.963 91.364C242.483 92.468 242.039 93.356 241.631 94.028C241.247 94.676 240.923 95 240.659 95C240.419 95 240.095 94.676 239.687 94.028C239.279 93.356 238.823 92.468 238.319 91.364C237.839 90.236 237.335 88.988 236.807 87.62C236.279 86.228 235.775 84.788 235.295 83.3C234.815 81.812 234.371 80.384 233.963 79.016C233.579 77.624 233.267 76.376 233.027 75.272C232.787 74.144 232.655 73.256 232.631 72.608C232.607 71.936 232.727 71.6 232.991 71.6C234.023 71.6 235.559 74.816 237.599 81.248C239.639 87.656 241.679 87.656 243.719 81.248C245.759 74.816 247.283 71.6 248.291 71.6ZM264.196 74.3C262.636 74.3 261.856 77.3 261.856 83.3C261.856 89.3 262.636 92.3 264.196 92.3C265.756 92.3 266.536 92.744 266.536 93.632C266.536 94.544 265.756 95 264.196 95H256.636C255.076 95 254.296 94.544 254.296 93.632C254.296 92.744 255.076 92.3 256.636 92.3C258.196 92.3 258.976 89.3 258.976 83.3C258.976 77.3 258.196 74.3 256.636 74.3C255.076 74.3 254.296 73.844 254.296 72.932C254.296 72.044 256.336 71.6 260.416 71.6C264.496 71.6 266.536 72.044 266.536 72.932C266.536 73.844 265.756 74.3 264.196 74.3ZM287.049 71.6C288.009 71.6 288.489 75.5 288.489 83.3C288.489 91.1 288.009 95 287.049 95C286.089 95 283.809 91.94 280.209 85.82C276.609 79.724 274.809 79.724 274.809 85.82C274.809 91.94 274.329 95 273.369 95C272.409 95 271.929 91.1 271.929 83.3C271.929 75.5 272.409 71.6 273.369 71.6C274.329 71.6 276.609 74.684 280.209 80.852C283.809 87.044 285.609 87.044 285.609 80.852C285.609 74.684 286.089 71.6 287.049 71.6Z" fill="black"/>
<defs>
<filter id="filter0_i_0_1" x="271.15" y="0.700554" width="57.9988" height="70.8265" filterUnits="userSpaceOnUse" color-interpolation-filters="sRGB">
<feFlood flood-opacity="0" result="BackgroundImageFix"/>
<feBlend mode="normal" in="SourceGraphic" in2="BackgroundImageFix" result="shape"/>
<feColorMatrix in="SourceAlpha" type="matrix" values="0 0 0 0 0 0 0 0 0 0 0 0 0 0 0 0 0 0 127 0" result="hardAlpha"/>
<feOffset dy="4"/>
<feGaussianBlur stdDeviation="2"/>
<feComposite in2="hardAlpha" operator="arithmetic" k2="-1" k3="1"/>
<feColorMatrix type="matrix" values="0 0 0 0 0 0 0 0 0 0 0 0 0 0 0 0 0 0 0.25 0"/>
<feBlend mode="normal" in2="shape" result="effect1_innerShadow_0_1"/>
</filter>
</defs>
</svg>
